<svg width="45" height="35" viewBox="0 0 45 35" fill="none" xmlns="http://www.w3.org/2000/svg">
<path fill-rule="evenodd" clip-rule="evenodd" d="M26.8594 5.46884H18.1406C17.8641 6.5195 17.197 7.48386 16.222 8.24219C15.247 9.00052 14.0071 9.51942 12.6563 9.73447C12.6557 10.0504 12.6557 10.3664 12.6563 10.6824C14.0071 10.8974 15.247 11.4163 16.222 12.1747C17.197 12.933 17.8641 13.8974 18.1406 14.948H26.8594C27.1359 13.8974 27.803 12.933 28.778 12.1747C29.753 11.4163 30.9929 10.8974 32.3438 10.6824C32.3442 10.3664 32.3442 10.0504 32.3438 9.73447C30.9929 9.51942 29.753 9.00052 28.778 8.24219C27.803 7.48386 27.1359 6.5195 26.8594 5.46884ZM27.9938 3.28572C27.4781 3.28134 26.9306 3.28134 26.3475 3.28134H18.6525C18.0713 3.28134 17.5219 3.28134 17.0081 3.28572C16.9057 3.27854 16.8026 3.28001 16.7006 3.29009C15.8531 3.30176 15.1013 3.32947 14.4488 3.39801C13.2713 3.52051 12.2081 3.79176 11.355 4.4553C10.5 5.1203 10.1513 5.94718 9.99376 6.86155C9.90564 7.37051 9.87001 7.9553 9.85501 8.61447C9.84217 8.69332 9.84028 8.77301 9.84939 8.85218C9.84376 9.25322 9.84376 9.68051 9.84376 10.1326V10.2843C9.84376 10.7363 9.84376 11.1636 9.84939 11.5647C9.8403 11.6438 9.84218 11.7235 9.85501 11.8024C9.87001 12.463 9.90564 13.0463 9.99376 13.5538C10.1513 14.4697 10.5 15.2966 11.355 15.9601C12.2081 16.6251 13.2713 16.8963 14.4488 17.0188C15.1013 17.0874 15.8531 17.1151 16.7006 17.1268C16.8026 17.137 16.9057 17.1385 17.0081 17.1311C17.5219 17.1355 18.0713 17.1355 18.6525 17.1355H26.3475C26.9288 17.1355 27.4781 17.1355 27.9938 17.1311C28.0955 17.1384 28.198 17.1369 28.2994 17.1268C29.1488 17.1151 29.9006 17.0874 30.5513 17.0188C31.7288 16.8963 32.7919 16.6251 33.645 15.9601C34.5 15.2966 34.8488 14.4697 35.0063 13.5538C35.0951 12.9725 35.1414 12.3878 35.145 11.8024C35.1577 11.7235 35.1596 11.6438 35.1506 11.5647C35.1563 11.1636 35.1563 10.7363 35.1563 10.2843V10.1326C35.1563 9.68051 35.1563 9.25322 35.1506 8.85218C35.1599 8.77302 35.158 8.69331 35.145 8.61447C35.1411 8.02909 35.0948 7.44434 35.0063 6.86301C34.8488 5.94718 34.5 5.1203 33.6469 4.45676C32.7919 3.79176 31.7288 3.52051 30.5531 3.39801C29.8051 3.32907 29.0527 3.29304 28.2994 3.29009C28.198 3.28007 28.0955 3.2786 27.9938 3.28572ZM29.8013 5.53301C30.0136 5.96931 30.3427 6.36552 30.7668 6.69538C31.1909 7.02525 31.7003 7.28122 32.2613 7.44634C32.2495 7.3489 32.2351 7.25166 32.2181 7.15468C32.1038 6.48093 31.9013 6.19218 31.6556 6.00259C31.4119 5.81301 31.0425 5.65697 30.1781 5.56509C30.0534 5.55243 29.9284 5.54173 29.8031 5.53301H29.8013ZM32.2613 12.9705C31.7003 13.1356 31.1909 13.3916 30.7668 13.7215C30.3427 14.0513 30.0136 14.4475 29.8013 14.8838C29.9325 14.8751 30.0581 14.8634 30.1763 14.8518C31.0425 14.7599 31.4138 14.6038 31.6575 14.4143C31.9013 14.2247 32.1038 13.9359 32.22 13.2622C32.235 13.1703 32.25 13.0726 32.2613 12.9705ZM15.1988 14.8838C14.9865 14.4475 14.6574 14.0513 14.2332 13.7215C13.8091 13.3916 13.2997 13.1356 12.7388 12.9705C12.7519 13.0726 12.765 13.1703 12.7819 13.2622C12.8981 13.9359 13.0988 14.2247 13.3444 14.4143C13.5881 14.6038 13.9575 14.7599 14.8219 14.8518C14.9419 14.8634 15.0675 14.8751 15.1988 14.8838ZM12.7388 7.44634C13.2997 7.28122 13.8091 7.02525 14.2332 6.69538C14.6574 6.36552 14.9865 5.96931 15.1988 5.53301C15.0675 5.54176 14.9419 5.55343 14.8238 5.56655C13.9575 5.65697 13.5863 5.81301 13.3425 6.00405C13.0988 6.19364 12.8981 6.48093 12.78 7.15322L12.7388 7.44634ZM22.5 9.84384C22.3757 9.84384 22.2565 9.88225 22.1686 9.95063C22.0806 10.019 22.0313 10.1117 22.0313 10.2084C22.0313 10.3051 22.0806 10.3979 22.1686 10.4662C22.2565 10.5346 22.3757 10.573 22.5 10.573C22.6243 10.573 22.7436 10.5346 22.8315 10.4662C22.9194 10.3979 22.9688 10.3051 22.9688 10.2084C22.9688 10.1117 22.9194 10.019 22.8315 9.95063C22.7436 9.88225 22.6243 9.84384 22.5 9.84384ZM19.2188 10.2084C19.2188 9.53157 19.5645 8.88244 20.1798 8.40383C20.7952 7.92522 21.6298 7.65634 22.5 7.65634C23.3703 7.65634 24.2049 7.92522 24.8202 8.40383C25.4356 8.88244 25.7813 9.53157 25.7813 10.2084C25.7813 10.8853 25.4356 11.5344 24.8202 12.013C24.2049 12.4916 23.3703 12.7605 22.5 12.7605C21.6298 12.7605 20.7952 12.4916 20.1798 12.013C19.5645 11.5344 19.2188 10.8853 19.2188 10.2084ZM16.2825 21.0701C19.7813 20.5436 23.5256 20.6618 26.5575 22.0676C26.9813 22.2645 27.3825 22.5109 27.7294 22.8143C28.4344 23.4311 28.7981 24.1953 28.815 24.9624C29.1731 24.783 29.5331 24.5832 29.8969 24.3688L33.2869 22.3782C34.1357 21.8931 35.1614 21.6315 36.2147 21.6315C37.268 21.6315 38.2937 21.8931 39.1425 22.3782C40.71 23.297 41.3363 24.9493 40.2131 26.3493C39.4163 27.3424 38.2144 28.7176 36.9938 29.5984C35.7563 30.488 33.9994 31.2376 32.67 31.7363C31.0538 32.343 29.31 32.6784 27.6131 32.8913C24.1444 33.3288 20.5369 33.2618 17.1094 32.712C15.3419 32.4291 13.5421 32.2859 11.7375 32.2847H7.50001C7.12705 32.2847 6.76937 32.1694 6.50564 31.9643C6.24192 31.7592 6.09376 31.481 6.09376 31.1909C6.09376 30.9008 6.24192 30.6226 6.50564 30.4175C6.76937 30.2124 7.12705 30.0972 7.50001 30.0972H11.7375C13.7288 30.0972 15.7406 30.2591 17.6775 30.5697C20.8016 31.0683 24.0158 31.1231 27.165 30.7316C28.7175 30.5361 30.1688 30.2459 31.4475 29.7661C32.7281 29.2849 34.1681 28.652 35.0813 27.9943C36.0056 27.3278 37.0388 26.1743 37.8281 25.1913C38.0663 24.8938 38.0325 24.4666 37.4494 24.1238C36.7556 23.7155 35.6738 23.7155 34.9819 24.1238L31.5938 26.1145C30.24 26.9093 28.575 27.7595 26.5106 28.0161C26.2944 28.0428 26.0775 28.0661 25.86 28.0861C24.5463 28.204 23.2202 28.2138 21.9038 28.1153C21.7166 28.1052 21.534 28.0662 21.3666 28.0004C21.1992 27.9346 21.0503 27.8434 20.9289 27.7322C20.8075 27.621 20.7159 27.4921 20.6595 27.3529C20.6031 27.2138 20.5831 27.0673 20.6006 26.922C20.6181 26.7768 20.6728 26.6357 20.7615 26.5072C20.8501 26.3786 20.971 26.2651 21.1168 26.1734C21.2627 26.0817 21.4307 26.0137 21.611 25.9732C21.7912 25.9328 21.98 25.9208 22.1663 25.938C23.2064 26.0166 24.254 26.0151 25.2938 25.9336L25.35 25.9293C25.525 25.8448 25.6736 25.7312 25.7853 25.5967C25.8969 25.4622 25.9688 25.31 25.9957 25.1512C26.0226 24.9925 26.0039 24.8311 25.9409 24.6786C25.8778 24.5262 25.7721 24.3865 25.6313 24.2697C25.4819 24.1417 25.3079 24.0325 25.1156 23.9459C22.9013 22.9178 19.9425 22.7472 16.8169 23.2168C13.7639 23.6945 10.8697 24.6549 8.31376 26.0386C8.16307 26.1218 7.99281 26.181 7.81269 26.2129C7.63257 26.2448 7.44613 26.2489 7.26402 26.2248C7.0819 26.2007 6.90766 26.1489 6.75127 26.0724C6.59487 25.9959 6.45938 25.8963 6.35251 25.7791C6.24565 25.6618 6.16951 25.5294 6.12845 25.3893C6.08739 25.2492 6.08221 25.1042 6.1132 24.9626C6.14419 24.8209 6.21075 24.6854 6.30908 24.5638C6.4074 24.4421 6.53557 24.3368 6.68626 24.2536C9.56935 22.6903 12.8362 21.6065 16.2825 21.0701Z" fill="white"/>
</svg>
