<svg width="86" height="31" viewBox="0 0 86 31" fill="none" xmlns="http://www.w3.org/2000/svg">
<rect width="86" height="31" rx="15.5" fill="#2D2B2B"/>
<g clip-path="url(#clip0_41_195)">
<path d="M73.1494 10.6896H71.1724V14.9654H67.2184V17.1033H71.1724V21.3792H73.1494V17.1033H77.1035V14.9654H73.1494V10.6896ZM72.1609 5.34473C66.7044 5.34473 62.2759 10.1337 62.2759 16.0344C62.2759 21.9351 66.7044 26.724 72.1609 26.724C77.6175 26.724 82.046 21.9351 82.046 16.0344C82.046 10.1337 77.6175 5.34473 72.1609 5.34473ZM72.1609 24.5861C67.8016 24.5861 64.2529 20.7485 64.2529 16.0344C64.2529 11.3202 67.8016 7.48266 72.1609 7.48266C76.5202 7.48266 80.069 11.3202 80.069 16.0344C80.069 20.7485 76.5202 24.5861 72.1609 24.5861Z" fill="#E7E7E7"/>
</g>
<g clip-path="url(#clip1_41_195)">
<path d="M8.89663 14.9654V17.1033H18.7817V14.9654H8.89663ZM13.8392 5.34473C8.38261 5.34473 3.9541 10.1337 3.9541 16.0344C3.9541 21.9351 8.38261 26.724 13.8392 26.724C19.2957 26.724 23.7242 21.9351 23.7242 16.0344C23.7242 10.1337 19.2957 5.34473 13.8392 5.34473ZM13.8392 24.5861C9.47985 24.5861 5.93111 20.7485 5.93111 16.0344C5.93111 11.3202 9.47985 7.48266 13.8392 7.48266C18.1985 7.48266 21.7472 11.3202 21.7472 16.0344C21.7472 20.7485 18.1985 24.5861 13.8392 24.5861Z" fill="#EFEFEF"/>
</g>
<path d="M44.8715 25.207H43.1515V15.227C43.1515 14.6537 43.1582 14.1937 43.1715 13.847C43.1849 13.5004 43.2049 13.1404 43.2315 12.767C43.0182 12.9804 42.8249 13.1604 42.6515 13.307C42.4782 13.4537 42.2582 13.6404 41.9915 13.867L40.4715 15.107L39.5515 13.927L43.4115 10.927H44.8715V25.207Z" fill="white"/>
<defs>
<clipPath id="clip0_41_195">
<rect width="23.7241" height="25.6552" fill="white" transform="translate(60.2988 3.20703)"/>
</clipPath>
<clipPath id="clip1_41_195">
<rect width="23.7241" height="25.6552" fill="white" transform="translate(1.97705 3.20703)"/>
</clipPath>
</defs>
</svg>
