<svg width="32" height="32" viewBox="0 0 32 32" fill="none" xmlns="http://www.w3.org/2000/svg">
<path d="M3.50347 24.7019L3.50797 24.6985C-0.915533 20.0005 -0.834533 12.5823 3.75097 7.99564C5.77597 5.97064 8.46472 4.72189 11.311 4.46314C12.7461 4.33764 14.0918 3.71259 15.1135 2.69689L15.316 2.49439C18.2297 -0.419363 22.9345 -0.495863 25.9427 2.26376L25.9483 2.25814L26.1846 2.49439L29.4921 5.80189C32.4846 8.79439 32.4846 13.6769 29.4921 16.6694L29.2896 16.8719C28.2771 17.8956 27.6471 19.2456 27.5233 20.6744C27.2758 23.5319 26.0271 26.2206 24.0021 28.2456C19.3221 32.9144 11.7171 32.9144 7.04834 28.2456L3.50347 24.7019ZM3.53722 11.0556C1.12747 14.92 1.53922 20.0444 4.77247 23.4768C5.97072 24.7515 7.47605 25.6973 9.14441 26.2238C10.8128 26.7503 12.5883 26.8399 14.3012 26.4839C15.5046 26.2333 16.6527 25.7668 17.6897 25.1069C18.241 24.7581 18.4547 24.0494 18.1735 23.4531L14.9672 16.7256C14.3336 15.413 13.2695 14.3569 11.9522 13.7331L5.19097 10.5606C4.59472 10.2906 3.88597 10.4931 3.53722 11.0556ZM18.646 21.7656C18.7379 21.9608 18.8772 22.1298 19.0512 22.2573C19.2253 22.3847 19.4284 22.4666 19.6422 22.4953C19.856 22.5241 20.0736 22.4988 20.2751 22.4218C20.4766 22.3449 20.6556 22.2187 20.7958 22.0548C21.746 20.6069 22.322 18.9459 22.4721 17.2206C22.6296 15.3756 23.4396 13.6431 24.7446 12.3269L24.9471 12.1244C25.5157 11.557 25.9629 10.8798 26.2613 10.134C26.5597 9.38817 26.7032 8.58942 26.683 7.78639C26.6638 6.97519 26.4776 6.17666 26.1362 5.44057C25.7948 4.70448 25.3053 4.04662 24.6985 3.50801C22.3495 1.42114 18.7348 1.57301 16.4972 3.81064L16.3622 3.94564C15.0473 5.25273 13.3155 6.05696 11.4685 6.21814C9.78097 6.36439 8.16097 6.91564 6.74347 7.81564C5.88847 8.36689 5.96722 9.64939 6.88972 10.0769L12.4247 12.6981C12.4315 12.6981 12.436 12.7015 12.4427 12.7038C12.4483 12.706 12.454 12.7094 12.4585 12.7094C13.5497 13.2156 14.8322 13.0244 15.6872 12.1694L16.5197 11.3369C17.0485 10.8081 17.251 10.0319 17.0372 9.32314C16.8535 8.71331 16.838 8.06516 16.9925 7.44727C17.147 6.82938 17.4656 6.26475 17.9147 5.81314C18.2536 5.47258 18.659 5.20546 19.1057 5.02839C19.5523 4.85133 20.0306 4.76812 20.5108 4.78395C20.991 4.79978 21.4628 4.91431 21.8968 5.12041C22.3308 5.3265 22.7177 5.61975 23.0335 5.98189C24.1922 7.28689 24.1922 9.28939 23.0335 10.6056C22.0772 11.6856 20.6372 12.0344 19.3772 11.6519C19.0256 11.5432 18.651 11.5329 18.294 11.6222C17.937 11.7114 17.6113 11.8968 17.3522 12.1581L16.531 12.9794C15.676 13.8344 15.4847 15.1281 16.0022 16.2194C16.0022 16.225 16.0056 16.2284 16.009 16.2306C16.0112 16.234 16.0146 16.2363 16.0146 16.2419L18.6471 21.7656H18.646ZM18.9947 6.87064C18.241 7.62439 18.241 8.83939 18.9947 9.59314C19.7485 10.3469 20.9747 10.3469 21.7285 9.60439C22.4822 8.85064 22.4822 7.62439 21.7285 6.87064C21.3657 6.5086 20.8741 6.30526 20.3616 6.30526C19.8491 6.30526 19.3575 6.5086 18.9947 6.87064Z" fill="white"/>
</svg>
