<svg width="99" height="35" viewBox="0 0 99 35" fill="none" xmlns="http://www.w3.org/2000/svg">
<rect width="99" height="35" rx="17.5" fill="#2D2B2B"/>
<path d="M32.258 16.76C33.5914 17.3333 34.258 18.4467 34.258 20.1C34.258 21.4467 33.8314 22.4333 32.978 23.06C32.1247 23.6867 30.9247 24 29.378 24H24.498V10.08H29.518C30.878 10.08 31.9314 10.38 32.678 10.98C33.4247 11.58 33.798 12.4933 33.798 13.72C33.798 15.12 33.2847 16.1333 32.258 16.76ZM26.258 11.76V16.06H29.298C30.218 16.06 30.878 15.8933 31.278 15.56C31.6914 15.2267 31.898 14.64 31.898 13.8C31.898 13.0267 31.6914 12.4933 31.278 12.2C30.878 11.9067 30.218 11.76 29.298 11.76H26.258ZM29.378 22.32C30.4314 22.32 31.1914 22.16 31.658 21.84C32.1247 21.52 32.358 20.9133 32.358 20.02C32.358 19.1267 32.118 18.52 31.638 18.2C31.1714 17.88 30.4047 17.72 29.338 17.72H26.258V22.32H29.378ZM40.802 24.24C40.162 24.24 39.5286 24.1467 38.902 23.96C38.2886 23.76 37.7086 23.48 37.162 23.12V21.28C38.3753 22.2133 39.5753 22.68 40.762 22.68C41.4553 22.68 42.0153 22.54 42.442 22.26C42.8686 21.9667 43.082 21.58 43.082 21.1C43.082 20.7667 42.9753 20.4933 42.762 20.28C42.562 20.0667 42.3086 19.9 42.002 19.78C41.6953 19.66 41.2553 19.5133 40.682 19.34C39.9753 19.14 39.3886 18.9467 38.922 18.76C38.4686 18.56 38.082 18.2733 37.762 17.9C37.442 17.5133 37.282 17.0133 37.282 16.4C37.282 15.4667 37.6353 14.72 38.342 14.16C39.0486 13.6 39.9753 13.32 41.122 13.32C42.2686 13.32 43.3086 13.62 44.242 14.22V16C43.722 15.6 43.2153 15.3133 42.722 15.14C42.242 14.9667 41.7353 14.88 41.202 14.88C40.5353 14.88 40.0086 15 39.622 15.24C39.2353 15.48 39.042 15.8133 39.042 16.24C39.042 16.5467 39.142 16.8 39.342 17C39.5553 17.2 39.8153 17.36 40.122 17.48C40.4286 17.6 40.8686 17.7467 41.442 17.92C42.162 18.1333 42.7486 18.34 43.202 18.54C43.6553 18.7267 44.042 19.02 44.362 19.42C44.682 19.8067 44.842 20.3133 44.842 20.94C44.842 21.58 44.6686 22.1533 44.322 22.66C43.9753 23.1533 43.4953 23.54 42.882 23.82C42.2686 24.1 41.5753 24.24 40.802 24.24ZM48.602 24.24C48.2153 24.24 47.8886 24.1133 47.622 23.86C47.3686 23.6067 47.242 23.2733 47.242 22.86C47.242 22.4467 47.3686 22.1133 47.622 21.86C47.8886 21.6067 48.2153 21.48 48.602 21.48C48.9886 21.48 49.3086 21.6067 49.562 21.86C49.8286 22.1133 49.962 22.4467 49.962 22.86C49.962 23.2733 49.8286 23.6067 49.562 23.86C49.3086 24.1133 48.9886 24.24 48.602 24.24ZM62.8973 20.74H60.6973V24H58.9373V20.74H52.3373V19.4L52.4573 19.38L52.3373 19.34L58.9373 10.08H60.6973V19.14H62.8973V20.74ZM58.9373 19.14V12.46L54.3173 19.14H58.9373ZM70.1196 15.26C70.9463 15.26 71.6863 15.4533 72.3396 15.84C72.9929 16.2267 73.4996 16.7667 73.8596 17.46C74.2329 18.14 74.4196 18.9 74.4196 19.74C74.4196 20.6333 74.2129 21.42 73.7996 22.1C73.3863 22.7667 72.7996 23.2867 72.0396 23.66C71.2796 24.0333 70.3996 24.22 69.3996 24.22C68.6263 24.22 67.8729 24.1133 67.1396 23.9C66.4063 23.6733 65.7529 23.3533 65.1796 22.94V21.04H65.2596C65.8063 21.5067 66.4529 21.8867 67.1996 22.18C67.9596 22.4733 68.6863 22.62 69.3796 22.62C70.3263 22.62 71.0996 22.3533 71.6996 21.82C72.2996 21.2733 72.5996 20.56 72.5996 19.68C72.5996 18.8533 72.3329 18.18 71.7996 17.66C71.2796 17.1267 70.5996 16.86 69.7596 16.86C68.7863 16.86 67.8663 17.2133 66.9996 17.92H66.9196L65.6196 17.38V17.28L66.4996 10.08H73.7596V11.72H67.8996L67.3796 16C68.2863 15.5067 69.1996 15.26 70.1196 15.26Z" fill="#E7E7E7"/>
</svg>
