<svg width="34" height="30" viewBox="0 0 34 30" fill="none" xmlns="http://www.w3.org/2000/svg">
<path d="M0.5 0.5V12.5C0.5 14.0913 1.27262 15.6174 2.64788 16.7426C4.02315 17.8679 5.88841 18.5 7.83333 18.5H15.1667C17.1116 18.5 18.9768 17.8679 20.3521 16.7426C21.7274 15.6174 22.5 14.0913 22.5 12.5V11H26.1667C28.2017 11 29.8333 9.665 29.8333 8V3.5C29.8333 2.70435 29.447 1.94129 28.7594 1.37868C28.0718 0.81607 27.1391 0.5 26.1667 0.5H0.5ZM4.16667 3.5H18.8333V12.5C18.8333 13.2956 18.447 14.0587 17.7594 14.6213C17.0718 15.1839 16.1391 15.5 15.1667 15.5H7.83333C6.86087 15.5 5.92824 15.1839 5.24061 14.6213C4.55297 14.0587 4.16667 13.2956 4.16667 12.5V3.5ZM22.5 3.5H26.1667V8H22.5V3.5ZM25.5617 16.745L22.9767 18.86L26.1667 21.5H0.5V24.5H26.1667L22.9767 27.14L25.5617 29.255L33.2067 23L25.5617 16.745Z" fill="white"/>
</svg>
