<svg width="44" height="36" viewBox="0 0 44 36" fill="none" xmlns="http://www.w3.org/2000/svg">
<path d="M5.5 4.5V16.5C5.5 18.0913 6.27262 19.6174 7.64788 20.7426C9.02315 21.8679 10.8884 22.5 12.8333 22.5H20.1667C22.1116 22.5 23.9768 21.8679 25.3521 20.7426C26.7274 19.6174 27.5 18.0913 27.5 16.5V15H31.1667C33.2017 15 34.8333 13.665 34.8333 12V7.5C34.8333 6.70435 34.447 5.94129 33.7594 5.37868C33.0718 4.81607 32.1391 4.5 31.1667 4.5H5.5ZM9.16667 7.5H23.8333V16.5C23.8333 17.2956 23.447 18.0587 22.7594 18.6213C22.0718 19.1839 21.1391 19.5 20.1667 19.5H12.8333C11.8609 19.5 10.9282 19.1839 10.2406 18.6213C9.55297 18.0587 9.16667 17.2956 9.16667 16.5V7.5ZM27.5 7.5H31.1667V12H27.5V7.5ZM30.5617 20.745L27.9767 22.86L31.1667 25.5H5.5V28.5H31.1667L27.9767 31.14L30.5617 33.255L38.2067 27L30.5617 20.745Z" fill="white"/>
</svg>
