<svg width="36" height="36" viewBox="0 0 36 36" fill="none" xmlns="http://www.w3.org/2000/svg">
<path d="M5.50347 26.7019L5.50797 26.6985C1.08447 22.0005 1.16547 14.5823 5.75097 9.99564C7.77597 7.97064 10.4647 6.72189 13.311 6.46314C14.7461 6.33764 16.0918 5.71259 17.1135 4.69689L17.316 4.49439C20.2297 1.58064 24.9345 1.50414 27.9427 4.26376L27.9483 4.25814L28.1846 4.49439L31.4921 7.80189C34.4846 10.7944 34.4846 15.6769 31.4921 18.6694L31.2896 18.8719C30.2771 19.8956 29.6471 21.2456 29.5233 22.6744C29.2758 25.5319 28.0271 28.2206 26.0021 30.2456C21.3221 34.9144 13.7171 34.9144 9.04834 30.2456L5.50347 26.7019ZM5.53722 13.0556C3.12747 16.92 3.53922 22.0444 6.77247 25.4768C7.97072 26.7515 9.47605 27.6973 11.1444 28.2238C12.8128 28.7503 14.5883 28.8399 16.3012 28.4839C17.5046 28.2333 18.6527 27.7668 19.6897 27.1069C20.241 26.7581 20.4547 26.0494 20.1735 25.4531L16.9672 18.7256C16.3336 17.413 15.2695 16.3569 13.9522 15.7331L7.19097 12.5606C6.59472 12.2906 5.88597 12.4931 5.53722 13.0556ZM20.646 23.7656C20.7379 23.9608 20.8772 24.1298 21.0512 24.2573C21.2253 24.3847 21.4284 24.4666 21.6422 24.4953C21.856 24.5241 22.0736 24.4988 22.2751 24.4218C22.4766 24.3449 22.6556 24.2187 22.7958 24.0548C23.746 22.6069 24.322 20.9459 24.4721 19.2206C24.6296 17.3756 25.4396 15.6431 26.7446 14.3269L26.9471 14.1244C27.5157 13.557 27.9629 12.8798 28.2613 12.134C28.5597 11.3882 28.7032 10.5894 28.683 9.78639C28.6638 8.97519 28.4776 8.17666 28.1362 7.44057C27.7948 6.70448 27.3053 6.04662 26.6985 5.50801C24.3495 3.42114 20.7348 3.57301 18.4972 5.81064L18.3622 5.94564C17.0473 7.25273 15.3155 8.05696 13.4685 8.21814C11.781 8.36439 10.161 8.91564 8.74347 9.81564C7.88847 10.3669 7.96722 11.6494 8.88972 12.0769L14.4247 14.6981C14.4315 14.6981 14.436 14.7015 14.4427 14.7038C14.4483 14.706 14.454 14.7094 14.4585 14.7094C15.5497 15.2156 16.8322 15.0244 17.6872 14.1694L18.5197 13.3369C19.0485 12.8081 19.251 12.0319 19.0372 11.3231C18.8535 10.7133 18.838 10.0652 18.9925 9.44727C19.147 8.82938 19.4656 8.26475 19.9147 7.81314C20.2536 7.47258 20.659 7.20546 21.1057 7.02839C21.5523 6.85133 22.0306 6.76812 22.5108 6.78395C22.991 6.79978 23.4628 6.91431 23.8968 7.12041C24.3308 7.3265 24.7177 7.61975 25.0335 7.98189C26.1922 9.28689 26.1922 11.2894 25.0335 12.6056C24.0772 13.6856 22.6372 14.0344 21.3772 13.6519C21.0256 13.5432 20.651 13.5329 20.294 13.6222C19.937 13.7114 19.6113 13.8968 19.3522 14.1581L18.531 14.9794C17.676 15.8344 17.4847 17.1281 18.0022 18.2194C18.0022 18.225 18.0056 18.2284 18.009 18.2306C18.0112 18.234 18.0146 18.2363 18.0146 18.2419L20.6471 23.7656H20.646ZM20.9947 8.87064C20.241 9.62439 20.241 10.8394 20.9947 11.5931C21.7485 12.3469 22.9747 12.3469 23.7285 11.6044C24.4822 10.8506 24.4822 9.62439 23.7285 8.87064C23.3657 8.5086 22.8741 8.30526 22.3616 8.30526C21.8491 8.30526 21.3575 8.5086 20.9947 8.87064Z" fill="white"/>
</svg>
